<mxfile host="app.diagrams.net" modified="2021-03-09T10:26:18.492Z" agent="5.0 (Windows NT 10.0; Win64; x64) AppleWebKit/537.36 (KHTML, like Gecko) Chrome/88.0.4324.190 Safari/537.36" etag="ygMx52r9FZhBNufRXe1l" version="14.4.3" type="github">
  <diagram id="prtHgNgQTEPvFCAcTncT" name="Page-1">
    <mxGraphModel dx="981" dy="548" grid="1" gridSize="10" guides="1" tooltips="1" connect="1" arrows="1" fold="1" page="1" pageScale="1" pageWidth="827" pageHeight="1169" math="0" shadow="0">
      <root>
        <mxCell id="0" />
        <mxCell id="1" parent="0" />
        <mxCell id="dNxyNK7c78bLwvsdeMH5-19" value="Q&amp;amp;A Workflow" style="swimlane;html=1;childLayout=stackLayout;resizeParent=1;resizeParentMax=0;horizontal=0;startSize=20;horizontalStack=0;" parent="1" vertex="1">
          <mxGeometry x="120" y="120" width="2510" height="490" as="geometry" />
        </mxCell>
        <mxCell id="dNxyNK7c78bLwvsdeMH5-20" value="TDSL" style="swimlane;html=1;startSize=20;horizontal=0;" parent="dNxyNK7c78bLwvsdeMH5-19" vertex="1">
          <mxGeometry x="20" width="2490" height="220" as="geometry" />
        </mxCell>
        <mxCell id="dNxyNK7c78bLwvsdeMH5-25" value="" style="edgeStyle=orthogonalEdgeStyle;rounded=0;orthogonalLoop=1;jettySize=auto;html=1;" parent="dNxyNK7c78bLwvsdeMH5-20" source="dNxyNK7c78bLwvsdeMH5-23" target="dNxyNK7c78bLwvsdeMH5-24" edge="1">
          <mxGeometry relative="1" as="geometry" />
        </mxCell>
        <mxCell id="dNxyNK7c78bLwvsdeMH5-23" value="" style="ellipse;whiteSpace=wrap;html=1;" parent="dNxyNK7c78bLwvsdeMH5-20" vertex="1">
          <mxGeometry x="40" y="79" width="40" height="40" as="geometry" />
        </mxCell>
        <mxCell id="dNxyNK7c78bLwvsdeMH5-24" value="Create question by Japanese" style="rounded=0;whiteSpace=wrap;html=1;fontFamily=Helvetica;fontSize=12;fontColor=#000000;align=center;" parent="dNxyNK7c78bLwvsdeMH5-20" vertex="1">
          <mxGeometry x="120" y="69" width="80" height="60" as="geometry" />
        </mxCell>
        <mxCell id="7MUZo-UXY0UL-2Fm9ZRf-6" value="Reviewing" style="rounded=0;whiteSpace=wrap;html=1;fontFamily=Helvetica;fontSize=12;fontColor=#000000;align=center;" vertex="1" parent="dNxyNK7c78bLwvsdeMH5-20">
          <mxGeometry x="290" y="69" width="80" height="60" as="geometry" />
        </mxCell>
        <mxCell id="7MUZo-UXY0UL-2Fm9ZRf-9" value="OK?" style="rhombus;whiteSpace=wrap;html=1;" vertex="1" parent="dNxyNK7c78bLwvsdeMH5-20">
          <mxGeometry x="430" y="58.99586206896558" width="80" height="80" as="geometry" />
        </mxCell>
        <mxCell id="7MUZo-UXY0UL-2Fm9ZRf-8" style="edgeStyle=orthogonalEdgeStyle;rounded=0;orthogonalLoop=1;jettySize=auto;html=1;exitX=1;exitY=0.5;exitDx=0;exitDy=0;" edge="1" parent="dNxyNK7c78bLwvsdeMH5-20" source="7MUZo-UXY0UL-2Fm9ZRf-6" target="7MUZo-UXY0UL-2Fm9ZRf-9">
          <mxGeometry relative="1" as="geometry">
            <mxPoint x="440" y="99.27586206896558" as="targetPoint" />
          </mxGeometry>
        </mxCell>
        <mxCell id="7MUZo-UXY0UL-2Fm9ZRf-15" value="Yes" style="text;html=1;align=center;verticalAlign=middle;resizable=0;points=[];autosize=1;" vertex="1" parent="dNxyNK7c78bLwvsdeMH5-20">
          <mxGeometry x="500" y="79" width="40" height="20" as="geometry" />
        </mxCell>
        <mxCell id="7MUZo-UXY0UL-2Fm9ZRf-34" value="Reviewing" style="rounded=0;whiteSpace=wrap;html=1;" vertex="1" parent="dNxyNK7c78bLwvsdeMH5-20">
          <mxGeometry x="1480" y="79" width="130" height="60" as="geometry" />
        </mxCell>
        <mxCell id="7MUZo-UXY0UL-2Fm9ZRf-36" value="OK?" style="rhombus;whiteSpace=wrap;html=1;" vertex="1" parent="dNxyNK7c78bLwvsdeMH5-20">
          <mxGeometry x="1660" y="69" width="80" height="80" as="geometry" />
        </mxCell>
        <mxCell id="7MUZo-UXY0UL-2Fm9ZRf-50" value="Reviewing" style="rounded=0;whiteSpace=wrap;html=1;" vertex="1" parent="dNxyNK7c78bLwvsdeMH5-20">
          <mxGeometry x="1890" y="79" width="130" height="60" as="geometry" />
        </mxCell>
        <mxCell id="7MUZo-UXY0UL-2Fm9ZRf-52" value="OK?" style="rhombus;whiteSpace=wrap;html=1;" vertex="1" parent="dNxyNK7c78bLwvsdeMH5-20">
          <mxGeometry x="2090" y="70" width="80" height="80" as="geometry" />
        </mxCell>
        <mxCell id="7MUZo-UXY0UL-2Fm9ZRf-55" value="Close ticket" style="rounded=0;whiteSpace=wrap;html=1;" vertex="1" parent="dNxyNK7c78bLwvsdeMH5-20">
          <mxGeometry x="2260" y="79" width="130" height="60" as="geometry" />
        </mxCell>
        <mxCell id="7MUZo-UXY0UL-2Fm9ZRf-61" value="" style="ellipse;whiteSpace=wrap;html=1;" vertex="1" parent="dNxyNK7c78bLwvsdeMH5-20">
          <mxGeometry x="2430" y="90" width="40" height="40" as="geometry" />
        </mxCell>
        <mxCell id="7MUZo-UXY0UL-2Fm9ZRf-39" style="edgeStyle=orthogonalEdgeStyle;rounded=0;orthogonalLoop=1;jettySize=auto;html=1;exitX=0.5;exitY=1;exitDx=0;exitDy=0;entryX=0.64;entryY=0.002;entryDx=0;entryDy=0;entryPerimeter=0;" edge="1" parent="dNxyNK7c78bLwvsdeMH5-19" source="7MUZo-UXY0UL-2Fm9ZRf-36" target="7MUZo-UXY0UL-2Fm9ZRf-31">
          <mxGeometry relative="1" as="geometry" />
        </mxCell>
        <mxCell id="dNxyNK7c78bLwvsdeMH5-21" value="TSDV" style="swimlane;html=1;startSize=20;horizontal=0;" parent="dNxyNK7c78bLwvsdeMH5-19" vertex="1">
          <mxGeometry x="20" y="220" width="2490" height="270" as="geometry" />
        </mxCell>
        <mxCell id="7MUZo-UXY0UL-2Fm9ZRf-12" style="edgeStyle=orthogonalEdgeStyle;rounded=0;orthogonalLoop=1;jettySize=auto;html=1;exitX=1;exitY=0.5;exitDx=0;exitDy=0;entryX=0;entryY=0.5;entryDx=0;entryDy=0;" edge="1" parent="dNxyNK7c78bLwvsdeMH5-21" source="7MUZo-UXY0UL-2Fm9ZRf-1" target="7MUZo-UXY0UL-2Fm9ZRf-5">
          <mxGeometry relative="1" as="geometry" />
        </mxCell>
        <mxCell id="7MUZo-UXY0UL-2Fm9ZRf-1" value="TSDV investigate question" style="rounded=0;whiteSpace=wrap;html=1;" vertex="1" parent="dNxyNK7c78bLwvsdeMH5-21">
          <mxGeometry x="100" y="110" width="120" height="60" as="geometry" />
        </mxCell>
        <mxCell id="7MUZo-UXY0UL-2Fm9ZRf-5" value="Create investigate report&amp;nbsp;" style="rounded=0;whiteSpace=wrap;html=1;" vertex="1" parent="dNxyNK7c78bLwvsdeMH5-21">
          <mxGeometry x="270" y="110" width="120" height="60" as="geometry" />
        </mxCell>
        <mxCell id="7MUZo-UXY0UL-2Fm9ZRf-18" value="Create story ticket with tracker is Q&amp;amp;A in Redmine" style="rounded=0;whiteSpace=wrap;html=1;" vertex="1" parent="dNxyNK7c78bLwvsdeMH5-21">
          <mxGeometry x="470" y="110" width="120" height="60" as="geometry" />
        </mxCell>
        <mxCell id="7MUZo-UXY0UL-2Fm9ZRf-22" value="TSDV Reviewing" style="rounded=0;whiteSpace=wrap;html=1;" vertex="1" parent="dNxyNK7c78bLwvsdeMH5-21">
          <mxGeometry x="640" y="110" width="120" height="60" as="geometry" />
        </mxCell>
        <mxCell id="7MUZo-UXY0UL-2Fm9ZRf-25" style="edgeStyle=orthogonalEdgeStyle;rounded=0;orthogonalLoop=1;jettySize=auto;html=1;exitX=0.5;exitY=1;exitDx=0;exitDy=0;entryX=0.5;entryY=1;entryDx=0;entryDy=0;" edge="1" parent="dNxyNK7c78bLwvsdeMH5-21" target="7MUZo-UXY0UL-2Fm9ZRf-18">
          <mxGeometry relative="1" as="geometry">
            <mxPoint x="850" y="180.00310344827585" as="sourcePoint" />
            <Array as="points">
              <mxPoint x="850" y="190" />
              <mxPoint x="530" y="190" />
            </Array>
          </mxGeometry>
        </mxCell>
        <mxCell id="7MUZo-UXY0UL-2Fm9ZRf-24" value="OK?" style="rhombus;whiteSpace=wrap;html=1;" vertex="1" parent="dNxyNK7c78bLwvsdeMH5-21">
          <mxGeometry x="810" y="100.00310344827591" width="80" height="80" as="geometry" />
        </mxCell>
        <mxCell id="7MUZo-UXY0UL-2Fm9ZRf-23" style="edgeStyle=orthogonalEdgeStyle;rounded=0;orthogonalLoop=1;jettySize=auto;html=1;exitX=1;exitY=0.5;exitDx=0;exitDy=0;" edge="1" parent="dNxyNK7c78bLwvsdeMH5-21" source="7MUZo-UXY0UL-2Fm9ZRf-22">
          <mxGeometry relative="1" as="geometry">
            <mxPoint x="810.0031034482759" y="140" as="targetPoint" />
          </mxGeometry>
        </mxCell>
        <mxCell id="7MUZo-UXY0UL-2Fm9ZRf-27" value="Yes" style="text;html=1;align=center;verticalAlign=middle;resizable=0;points=[];autosize=1;" vertex="1" parent="dNxyNK7c78bLwvsdeMH5-21">
          <mxGeometry x="890" y="114" width="40" height="20" as="geometry" />
        </mxCell>
        <mxCell id="7MUZo-UXY0UL-2Fm9ZRf-29" value="Checking in know-how" style="rounded=0;whiteSpace=wrap;html=1;" vertex="1" parent="dNxyNK7c78bLwvsdeMH5-21">
          <mxGeometry x="950" y="110" width="130" height="60" as="geometry" />
        </mxCell>
        <mxCell id="7MUZo-UXY0UL-2Fm9ZRf-31" value="Create answer template" style="rounded=0;whiteSpace=wrap;html=1;" vertex="1" parent="dNxyNK7c78bLwvsdeMH5-21">
          <mxGeometry x="1480" y="110" width="130" height="60" as="geometry" />
        </mxCell>
        <mxCell id="7MUZo-UXY0UL-2Fm9ZRf-38" value="Collect and classify to know-how" style="rounded=0;whiteSpace=wrap;html=1;" vertex="1" parent="dNxyNK7c78bLwvsdeMH5-21">
          <mxGeometry x="1720" y="114" width="130" height="60" as="geometry" />
        </mxCell>
        <mxCell id="7MUZo-UXY0UL-2Fm9ZRf-46" style="edgeStyle=orthogonalEdgeStyle;rounded=0;orthogonalLoop=1;jettySize=auto;html=1;exitX=0.5;exitY=0;exitDx=0;exitDy=0;entryX=0;entryY=0.5;entryDx=0;entryDy=0;" edge="1" parent="dNxyNK7c78bLwvsdeMH5-21" source="7MUZo-UXY0UL-2Fm9ZRf-41" target="7MUZo-UXY0UL-2Fm9ZRf-45">
          <mxGeometry relative="1" as="geometry" />
        </mxCell>
        <mxCell id="7MUZo-UXY0UL-2Fm9ZRf-41" value="Already exist in know how?" style="rhombus;whiteSpace=wrap;html=1;" vertex="1" parent="dNxyNK7c78bLwvsdeMH5-21">
          <mxGeometry x="1120" y="100" width="110" height="80" as="geometry" />
        </mxCell>
        <mxCell id="7MUZo-UXY0UL-2Fm9ZRf-43" value="No" style="text;html=1;align=center;verticalAlign=middle;resizable=0;points=[];autosize=1;" vertex="1" parent="dNxyNK7c78bLwvsdeMH5-21">
          <mxGeometry x="1235" y="114" width="30" height="20" as="geometry" />
        </mxCell>
        <mxCell id="7MUZo-UXY0UL-2Fm9ZRf-42" style="edgeStyle=orthogonalEdgeStyle;rounded=0;orthogonalLoop=1;jettySize=auto;html=1;exitX=1;exitY=0.5;exitDx=0;exitDy=0;entryX=0;entryY=0.5;entryDx=0;entryDy=0;" edge="1" parent="dNxyNK7c78bLwvsdeMH5-21" target="7MUZo-UXY0UL-2Fm9ZRf-31">
          <mxGeometry relative="1" as="geometry">
            <mxPoint x="1300" y="140" as="targetPoint" />
            <mxPoint x="1230" y="140" as="sourcePoint" />
          </mxGeometry>
        </mxCell>
        <mxCell id="7MUZo-UXY0UL-2Fm9ZRf-45" value="Copy link in know how" style="rounded=0;whiteSpace=wrap;html=1;" vertex="1" parent="dNxyNK7c78bLwvsdeMH5-21">
          <mxGeometry x="1280" y="20" width="130" height="60" as="geometry" />
        </mxCell>
        <mxCell id="7MUZo-UXY0UL-2Fm9ZRf-47" value="Yes" style="text;html=1;align=center;verticalAlign=middle;resizable=0;points=[];autosize=1;" vertex="1" parent="dNxyNK7c78bLwvsdeMH5-21">
          <mxGeometry x="1140" y="70" width="40" height="20" as="geometry" />
        </mxCell>
        <mxCell id="7MUZo-UXY0UL-2Fm9ZRf-2" style="edgeStyle=orthogonalEdgeStyle;rounded=0;orthogonalLoop=1;jettySize=auto;html=1;exitX=0.5;exitY=1;exitDx=0;exitDy=0;entryX=0.5;entryY=0;entryDx=0;entryDy=0;" edge="1" parent="dNxyNK7c78bLwvsdeMH5-19" source="dNxyNK7c78bLwvsdeMH5-24" target="7MUZo-UXY0UL-2Fm9ZRf-1">
          <mxGeometry relative="1" as="geometry" />
        </mxCell>
        <mxCell id="7MUZo-UXY0UL-2Fm9ZRf-7" style="edgeStyle=orthogonalEdgeStyle;rounded=0;orthogonalLoop=1;jettySize=auto;html=1;exitX=0.5;exitY=0;exitDx=0;exitDy=0;entryX=0.5;entryY=1;entryDx=0;entryDy=0;" edge="1" parent="dNxyNK7c78bLwvsdeMH5-19" source="7MUZo-UXY0UL-2Fm9ZRf-5" target="7MUZo-UXY0UL-2Fm9ZRf-6">
          <mxGeometry relative="1" as="geometry" />
        </mxCell>
        <mxCell id="7MUZo-UXY0UL-2Fm9ZRf-13" style="edgeStyle=orthogonalEdgeStyle;rounded=0;orthogonalLoop=1;jettySize=auto;html=1;exitX=0.5;exitY=1;exitDx=0;exitDy=0;entryX=0.644;entryY=-0.007;entryDx=0;entryDy=0;entryPerimeter=0;" edge="1" parent="dNxyNK7c78bLwvsdeMH5-19" source="7MUZo-UXY0UL-2Fm9ZRf-9" target="7MUZo-UXY0UL-2Fm9ZRf-5">
          <mxGeometry relative="1" as="geometry" />
        </mxCell>
        <mxCell id="7MUZo-UXY0UL-2Fm9ZRf-14" style="edgeStyle=orthogonalEdgeStyle;rounded=0;orthogonalLoop=1;jettySize=auto;html=1;exitX=1;exitY=0.5;exitDx=0;exitDy=0;entryX=0.5;entryY=0;entryDx=0;entryDy=0;" edge="1" parent="dNxyNK7c78bLwvsdeMH5-19" source="7MUZo-UXY0UL-2Fm9ZRf-9" target="7MUZo-UXY0UL-2Fm9ZRf-18">
          <mxGeometry relative="1" as="geometry">
            <mxPoint x="550" y="260" as="targetPoint" />
          </mxGeometry>
        </mxCell>
        <mxCell id="7MUZo-UXY0UL-2Fm9ZRf-48" style="edgeStyle=orthogonalEdgeStyle;rounded=0;orthogonalLoop=1;jettySize=auto;html=1;exitX=0.5;exitY=0;exitDx=0;exitDy=0;entryX=0;entryY=0.5;entryDx=0;entryDy=0;" edge="1" parent="dNxyNK7c78bLwvsdeMH5-19" source="7MUZo-UXY0UL-2Fm9ZRf-45" target="7MUZo-UXY0UL-2Fm9ZRf-34">
          <mxGeometry relative="1" as="geometry" />
        </mxCell>
        <mxCell id="7MUZo-UXY0UL-2Fm9ZRf-37" style="edgeStyle=orthogonalEdgeStyle;rounded=0;orthogonalLoop=1;jettySize=auto;html=1;exitX=1;exitY=0.5;exitDx=0;exitDy=0;entryX=0.549;entryY=0.013;entryDx=0;entryDy=0;entryPerimeter=0;" edge="1" parent="dNxyNK7c78bLwvsdeMH5-19" source="7MUZo-UXY0UL-2Fm9ZRf-36" target="7MUZo-UXY0UL-2Fm9ZRf-38">
          <mxGeometry relative="1" as="geometry">
            <mxPoint x="1810" y="280" as="targetPoint" />
          </mxGeometry>
        </mxCell>
        <mxCell id="7MUZo-UXY0UL-2Fm9ZRf-57" style="edgeStyle=orthogonalEdgeStyle;rounded=0;orthogonalLoop=1;jettySize=auto;html=1;exitX=0.5;exitY=1;exitDx=0;exitDy=0;entryX=0.5;entryY=1;entryDx=0;entryDy=0;" edge="1" parent="dNxyNK7c78bLwvsdeMH5-19" source="7MUZo-UXY0UL-2Fm9ZRf-52" target="7MUZo-UXY0UL-2Fm9ZRf-38">
          <mxGeometry relative="1" as="geometry" />
        </mxCell>
        <mxCell id="7MUZo-UXY0UL-2Fm9ZRf-16" value="No" style="text;html=1;align=center;verticalAlign=middle;resizable=0;points=[];autosize=1;" vertex="1" parent="1">
          <mxGeometry x="605" y="279" width="30" height="20" as="geometry" />
        </mxCell>
        <mxCell id="7MUZo-UXY0UL-2Fm9ZRf-21" style="edgeStyle=orthogonalEdgeStyle;rounded=0;orthogonalLoop=1;jettySize=auto;html=1;exitX=1;exitY=0.5;exitDx=0;exitDy=0;" edge="1" parent="1" source="7MUZo-UXY0UL-2Fm9ZRf-18">
          <mxGeometry relative="1" as="geometry">
            <mxPoint x="780" y="479.79310344827593" as="targetPoint" />
          </mxGeometry>
        </mxCell>
        <mxCell id="7MUZo-UXY0UL-2Fm9ZRf-26" style="edgeStyle=orthogonalEdgeStyle;rounded=0;orthogonalLoop=1;jettySize=auto;html=1;exitX=1;exitY=0.5;exitDx=0;exitDy=0;" edge="1" parent="1">
          <mxGeometry relative="1" as="geometry">
            <mxPoint x="1090" y="480" as="targetPoint" />
            <mxPoint x="1030" y="480.00310344827585" as="sourcePoint" />
          </mxGeometry>
        </mxCell>
        <mxCell id="7MUZo-UXY0UL-2Fm9ZRf-28" value="No" style="text;html=1;align=center;verticalAlign=middle;resizable=0;points=[];autosize=1;" vertex="1" parent="1">
          <mxGeometry x="985" y="514" width="30" height="20" as="geometry" />
        </mxCell>
        <mxCell id="7MUZo-UXY0UL-2Fm9ZRf-30" style="edgeStyle=orthogonalEdgeStyle;rounded=0;orthogonalLoop=1;jettySize=auto;html=1;exitX=1;exitY=0.5;exitDx=0;exitDy=0;" edge="1" parent="1" source="7MUZo-UXY0UL-2Fm9ZRf-29">
          <mxGeometry relative="1" as="geometry">
            <mxPoint x="1260" y="480" as="targetPoint" />
          </mxGeometry>
        </mxCell>
        <mxCell id="7MUZo-UXY0UL-2Fm9ZRf-32" style="edgeStyle=orthogonalEdgeStyle;rounded=0;orthogonalLoop=1;jettySize=auto;html=1;exitX=0.5;exitY=0;exitDx=0;exitDy=0;" edge="1" parent="1" source="7MUZo-UXY0UL-2Fm9ZRf-31">
          <mxGeometry relative="1" as="geometry">
            <mxPoint x="1685" y="260" as="targetPoint" />
          </mxGeometry>
        </mxCell>
        <mxCell id="7MUZo-UXY0UL-2Fm9ZRf-35" style="edgeStyle=orthogonalEdgeStyle;rounded=0;orthogonalLoop=1;jettySize=auto;html=1;exitX=1;exitY=0.5;exitDx=0;exitDy=0;" edge="1" parent="1" source="7MUZo-UXY0UL-2Fm9ZRf-34">
          <mxGeometry relative="1" as="geometry">
            <mxPoint x="1800" y="229.24137931034488" as="targetPoint" />
          </mxGeometry>
        </mxCell>
        <mxCell id="7MUZo-UXY0UL-2Fm9ZRf-40" value="No" style="text;html=1;align=center;verticalAlign=middle;resizable=0;points=[];autosize=1;" vertex="1" parent="1">
          <mxGeometry x="1815" y="270" width="30" height="20" as="geometry" />
        </mxCell>
        <mxCell id="7MUZo-UXY0UL-2Fm9ZRf-49" style="edgeStyle=orthogonalEdgeStyle;rounded=0;orthogonalLoop=1;jettySize=auto;html=1;exitX=1;exitY=0.5;exitDx=0;exitDy=0;" edge="1" parent="1" source="7MUZo-UXY0UL-2Fm9ZRf-38">
          <mxGeometry relative="1" as="geometry">
            <mxPoint x="2100" y="260" as="targetPoint" />
          </mxGeometry>
        </mxCell>
        <mxCell id="7MUZo-UXY0UL-2Fm9ZRf-51" style="edgeStyle=orthogonalEdgeStyle;rounded=0;orthogonalLoop=1;jettySize=auto;html=1;exitX=1;exitY=0.5;exitDx=0;exitDy=0;" edge="1" parent="1" source="7MUZo-UXY0UL-2Fm9ZRf-50">
          <mxGeometry relative="1" as="geometry">
            <mxPoint x="2230" y="229.24137931034488" as="targetPoint" />
          </mxGeometry>
        </mxCell>
        <mxCell id="7MUZo-UXY0UL-2Fm9ZRf-53" value="Yes" style="text;html=1;align=center;verticalAlign=middle;resizable=0;points=[];autosize=1;" vertex="1" parent="1">
          <mxGeometry x="1870" y="210" width="40" height="20" as="geometry" />
        </mxCell>
        <mxCell id="7MUZo-UXY0UL-2Fm9ZRf-54" style="edgeStyle=orthogonalEdgeStyle;rounded=0;orthogonalLoop=1;jettySize=auto;html=1;exitX=1;exitY=0.5;exitDx=0;exitDy=0;" edge="1" parent="1" source="7MUZo-UXY0UL-2Fm9ZRf-52">
          <mxGeometry relative="1" as="geometry">
            <mxPoint x="2400" y="229.9310344827586" as="targetPoint" />
          </mxGeometry>
        </mxCell>
        <mxCell id="7MUZo-UXY0UL-2Fm9ZRf-56" value="Yes" style="text;html=1;align=center;verticalAlign=middle;resizable=0;points=[];autosize=1;" vertex="1" parent="1">
          <mxGeometry x="2300" y="210" width="40" height="20" as="geometry" />
        </mxCell>
        <mxCell id="7MUZo-UXY0UL-2Fm9ZRf-58" value="No" style="text;html=1;align=center;verticalAlign=middle;resizable=0;points=[];autosize=1;" vertex="1" parent="1">
          <mxGeometry x="2265" y="270" width="30" height="20" as="geometry" />
        </mxCell>
        <mxCell id="7MUZo-UXY0UL-2Fm9ZRf-59" style="edgeStyle=orthogonalEdgeStyle;rounded=0;orthogonalLoop=1;jettySize=auto;html=1;exitX=1;exitY=0.5;exitDx=0;exitDy=0;" edge="1" parent="1" source="7MUZo-UXY0UL-2Fm9ZRf-55">
          <mxGeometry relative="1" as="geometry">
            <mxPoint x="2570" y="229.24137931034488" as="targetPoint" />
          </mxGeometry>
        </mxCell>
      </root>
    </mxGraphModel>
  </diagram>
</mxfile>
